<?xml version="1.0" encoding="utf-8"?>
<!-- Generator: Adobe Illustrator 15.1.0, SVG Export Plug-In . SVG Version: 6.00 Build 0)  -->
<!DOCTYPE svg PUBLIC "-//W3C//DTD SVG 1.1//EN" "http://www.w3.org/Graphics/SVG/1.1/DTD/svg11.dtd">
<svg version="1.1" id="Livello_1" xmlns="http://www.w3.org/2000/svg" xmlns:xlink="http://www.w3.org/1999/xlink" x="0px" y="0px"
	 width="303.42px" height="228.578px" viewBox="0 0 303.42 228.578" enable-background="new 0 0 303.42 228.578"
	 xml:space="preserve">
<path fill="#0078AE" d="M211.892,45.913c1.788-2.512,14.896-22.895,23.43-23.708c18.031-1.36,40.735-6.159,66.097-17.912
	c2.465-1.146,1.835-0.636,1.87,1.905l0.131,8.582c0.018,1.308-0.047,1.604-0.73,2.715c-17.265,28.002-30.359,54.912-27.26,77.562
	c0.226,1.646,0.332,1.551-0.927,2.649l-25.1,21.922c-1.307,1.142-1.093,1.067-1.265-0.618c-3.35-33.027,8.861-62.816,20.846-83.372
	c0.061-2.149,0.944-2.762-1.77-2.964l-50.007,19.159C213.169,52.725,209.498,50.087,211.892,45.913L211.892,45.913z"/>
<path fill="#0078AE" d="M256.274,44.399l-34.132,31.103C185.605,8.766,123.478-28.086,54.016,26.125
	C14.165,60.186-5.576,95.177,1.372,131.413c11.938,62.84,91.307,122.693,148.131,85.693c0.814,6.26,3.67,10.065,11.017,11.426
	c44.811,2.674,45.403-113.85,96.312-183.758C259.226,41.487,259.148,41.778,256.274,44.399z M110.999,192.018
	c-6.401-0.404-8.558-1.277-10.951-4.895c0.955-9.959,4.252-27.58,7.869-29.671C111.179,158.444,111.249,181.345,110.999,192.018z
	 M182.963,160.792c-6.076,0.518,3.538-50.874,5.304-76.311c-5.736-2.904-28.282,16.777-28.977,20.405l-11.979,35.771l-2.714,2.584
	l-1.984-3.901l-1.746-57.274c-7.531-10.418-25.709,14.265-29.32,23.637c-11.29,23.939-26.874,77.943-33.87,71.82
	c-10.632-17.656-20.015-20.377-28.157-8.16C-3.486,97.88,38.989,14.086,107.466,19.598
	C178.384,29.794,224.826,104.661,182.963,160.792z"/>
</svg>
